<?xml version="1.0" standalone="no"?>
<!DOCTYPE svg PUBLIC "-//W3C//DTD SVG 20010904//EN"
 "http://www.w3.org/TR/2001/REC-SVG-20010904/DTD/svg10.dtd">
<svg version="1.0" xmlns="http://www.w3.org/2000/svg"
 width="300.000000pt" height="300.000000pt" viewBox="0 0 300.000000 300.000000"
 preserveAspectRatio="xMidYMid meet">
<metadata>
Created by potrace 1.11, written by Peter Selinger 2001-2013
</metadata>
<g transform="translate(0.000000,300.000000) scale(0.100000,-0.100000)"
fill="#000000" stroke="none">
<path d="M1966 2510 c-70 -55 -123 -70 -226 -63 -238 15 -297 1 -347 -84 -26
-45 -26 -45 -74 -41 -55 6 -60 10 -122 106 -36 55 -52 72 -70 72 -28 0 -246
-86 -268 -106 -18 -16 -18 -36 0 -128 18 -98 17 -101 -58 -176 -38 -39 -73
-70 -78 -71 -4 0 -16 -2 -25 -4 -9 -2 -36 1 -60 7 -24 5 -54 12 -67 14 -14 3
-28 7 -32 10 -21 13 -61 -19 -80 -63 -11 -27 -27 -61 -34 -78 -8 -16 -24 -55
-35 -84 -26 -68 -19 -84 51 -126 28 -16 64 -42 80 -58 28 -26 29 -31 29 -117
0 -49 -5 -100 -11 -113 -6 -14 -49 -51 -95 -83 -65 -46 -82 -63 -79 -79 7 -39
92 -236 109 -257 18 -20 27 -21 111 -4 79 15 106 16 125 6 28 -15 133 -126
142 -150 3 -10 -1 -54 -11 -98 -19 -86 -18 -121 2 -134 48 -30 253 -109 271
-104 14 3 40 33 67 75 52 82 81 102 143 100 42 -2 47 -5 74 -49 21 -33 43 -54
77 -70 44 -21 55 -22 158 -16 182 12 190 12 237 -3 50 -16 108 -49 129 -75 23
-27 29 -18 19 26 -22 94 5 194 76 283 67 84 113 187 102 229 -3 14 -20 41 -36
59 l-29 34 48 -5 c97 -8 147 35 200 174 47 121 98 174 211 216 25 9 39 17 31
17 -33 2 -123 56 -161 97 -36 40 -57 77 -105 187 -38 89 -112 143 -179 133
l-41 -7 27 26 c43 40 46 87 10 160 -16 34 -52 91 -80 127 -74 99 -102 207 -77
305 3 13 4 23 3 22 -2 0 -25 -18 -52 -39z m-363 -317 c123 -43 189 -85 287
-183 118 -117 190 -260 206 -405 3 -27 7 -61 10 -74 5 -22 3 -23 -27 -17 -18
3 -34 7 -35 9 -1 1 -5 28 -8 59 -35 302 -295 555 -601 583 -49 5 -81 14 -107
31 -21 13 -38 27 -38 30 0 4 51 4 113 2 91 -4 128 -10 200 -35z m-325 -1 c32
-26 32 -28 10 -29 -122 -9 -278 -83 -381 -182 -55 -52 -127 -155 -156 -224
-86 -199 -58 -455 69 -642 15 -22 30 -56 34 -75 19 -93 19 -87 -1 -65 -201
217 -265 487 -178 753 51 156 176 314 314 397 61 37 209 95 241 95 8 0 30 -13
48 -28z m239 -119 c200 -52 376 -225 428 -422 13 -49 12 -57 -6 -105 -109
-277 -410 -436 -704 -369 -76 17 -106 29 -178 71 -89 51 -179 149 -228 245
-36 73 -40 87 -35 132 9 85 78 209 160 290 120 118 252 173 413 173 51 0 118
-7 150 -15z m-707 -615 c53 -103 157 -201 275 -262 189 -97 436 -86 622 26 75
45 171 143 213 216 19 34 38 62 41 62 12 0 -2 -104 -22 -173 -51 -172 -181
-314 -349 -380 -84 -33 -149 -44 -241 -42 -288 8 -544 246 -566 528 -3 37 -3
67 0 67 3 0 15 -19 27 -42z m1291 10 c5 -8 -3 -78 -16 -143 -9 -46 -26 -92
-60 -158 -181 -356 -604 -502 -965 -333 -99 46 -140 79 -151 121 -6 22 -13 49
-16 59 -4 15 1 13 23 -9 49 -49 159 -113 240 -141 378 -126 777 95 867 481 8
33 15 75 16 94 1 19 4 37 6 41 6 10 48 0 56 -12z"/>
</g>
</svg>
